<?xml version="1.0" encoding="UTF-8" standalone="no"?>
<svg
   xmlns:dc="http://purl.org/dc/elements/1.1/"
   xmlns:cc="http://creativecommons.org/ns#"
   xmlns:rdf="http://www.w3.org/1999/02/22-rdf-syntax-ns#"
   xmlns:svg="http://www.w3.org/2000/svg"
   xmlns="http://www.w3.org/2000/svg"
   xmlns:sodipodi="http://sodipodi.sourceforge.net/DTD/sodipodi-0.dtd"
   xmlns:inkscape="http://www.inkscape.org/namespaces/inkscape"
   viewBox="0 0 162.5 45.900002"
   version="1.1"
   id="svg66"
   sodipodi:docname="wai.svg"
   width="162.5"
   height="45.900002"
   inkscape:version="1.0 (4035a4f, 2020-05-01)">
  <metadata
     id="metadata72">
    <rdf:RDF>
      <cc:Work
         rdf:about="">
        <dc:format>image/svg+xml</dc:format>
        <dc:type
           rdf:resource="http://purl.org/dc/dcmitype/StillImage" />
        <dc:title></dc:title>
      </cc:Work>
    </rdf:RDF>
  </metadata>
  <defs
     id="defs70" />
  <sodipodi:namedview
     inkscape:document-rotation="0"
     pagecolor="#ffffff"
     bordercolor="#666666"
     borderopacity="1"
     objecttolerance="10"
     gridtolerance="10"
     guidetolerance="10"
     inkscape:pageopacity="0"
     inkscape:pageshadow="2"
     inkscape:window-width="1251"
     inkscape:window-height="943"
     id="namedview68"
     showgrid="false"
     fit-margin-top="0"
     fit-margin-left="0"
     fit-margin-right="0"
     fit-margin-bottom="0"
     inkscape:zoom="5.38"
     inkscape:cx="86.2"
     inkscape:cy="23"
     inkscape:window-x="0"
     inkscape:window-y="23"
     inkscape:window-maximized="0"
     inkscape:current-layer="svg66" />
  <g
     fill="none"
     fill-rule="evenodd"
     id="g64"
     transform="translate(-3.8,-14.5)">
    <path
       d="M 3.8,14.5 H 166.3 V 60.4 H 3.8 Z"
       fill="#015a9c"
       id="path50"
       style="stroke-width:0.585604" />
    <g
       transform="translate(-96,14)"
       id="g62">
      <path
         d="M 101,25 H 261"
         stroke="#eed009"
         stroke-linecap="square"
         stroke-width="2"
         id="path52" />
      <g
         fill="#ffffff"
         fill-rule="nonzero"
         id="g60">
        <path
           d="m 115.54102,16 h -1.81641 l -2.7832,-9.3554688 c -0.41016,-1.3932361 -0.65105,-2.3339819 -0.72266,-2.8222656 -0.10417,0.7487017 -0.33203,1.7089785 -0.68359,2.8808594 L 106.83984,16 h -1.8164 l -3.7793,-14.2773438 h 1.875 l 2.2168,8.7207028 c 0.29948,1.139329 0.52734,2.27213 0.68359,3.398438 0.14323,-1.067714 0.39713,-2.236322 0.76172,-3.505859 l 2.51953,-8.6132818 h 1.85547 l 2.62695,8.6816408 c 0.33855,1.126308 0.59896,2.27213 0.78125,3.4375 0.10417,-0.898442 0.33529,-2.037754 0.69336,-3.417969 l 2.20703,-8.7011718 h 1.875 z m 10.12695,0.195312 c -1.60808,0 -2.86946,-0.486648 -3.78418,-1.45996 -0.91472,-0.973313 -1.37207,-2.312817 -1.37207,-4.018555 0,-1.7187587 0.42643,-3.0875601 1.2793,-4.1064454 0.85286,-1.0188853 2.0052,-1.5283204 3.45703,-1.5283204 1.34766,0 2.42187,0.434566 3.22265,1.303711 0.80079,0.869145 1.20117,2.045891 1.20117,3.5302734 v 1.0644534 h -7.34374 c 0.0326,1.217454 0.34179,2.141924 0.92773,2.773437 0.58594,0.631514 1.41601,0.947266 2.49023,0.947266 0.57292,0 1.11654,-0.05045 1.63086,-0.151367 0.51433,-0.100912 1.11654,-0.29785 1.80664,-0.590821 v 1.542969 c -0.59245,0.253908 -1.14908,0.432942 -1.66992,0.537109 -0.52083,0.104168 -1.13606,0.15625 -1.8457,0.15625 z m -0.43945,-9.6777339 c -0.83985,0 -1.50391,0.2701796 -1.99219,0.8105469 -0.48829,0.5403673 -0.778,1.2923129 -0.86914,2.2558594 h 5.45898 c -0.013,-1.0026092 -0.24414,-1.7643203 -0.69336,-2.2851563 -0.44922,-0.5208359 -1.08398,-0.78125 -1.90429,-0.78125 z m 12.23632,-1.4160156 c 1.41277,0 2.50325,0.4866488 3.27149,1.4599609 0.76823,0.9733122 1.15234,2.3323481 1.15234,4.0771486 0,1.770842 -0.39062,3.139644 -1.17187,4.106445 -0.78126,0.966802 -1.86523,1.450195 -3.25196,1.450195 -0.72266,0 -1.36718,-0.130206 -1.93359,-0.390624 -0.56641,-0.260419 -1.02864,-0.647784 -1.38672,-1.16211 h -0.13672 C 133.80599,15.423832 133.68555,15.876302 133.64648,16 h -1.25976 V 0.8046875 h 1.75781 v 3.6914062 c 0,0.7356808 -0.0326,1.4713505 -0.0977,2.2070313 h 0.0977 c 0.72266,-1.0677137 1.82942,-1.6015625 3.32031,-1.6015625 z m -0.29297,1.4550781 c -1.08073,0 -1.85546,0.3059865 -2.32421,0.9179688 -0.46876,0.6119822 -0.70313,1.6471281 -0.70313,3.1054686 v 0.07813 c 0,1.464851 0.23926,2.51139 0.71777,3.139649 0.47852,0.628258 1.26139,0.942382 2.34864,0.942382 0.96354,0 1.68131,-0.353186 2.15332,-1.05957 0.472,-0.706384 0.70801,-1.726881 0.70801,-3.061523 0,-1.3541738 -0.23763,-2.3697887 -0.7129,-3.0468754 -0.47526,-0.6770867 -1.20442,-1.015625 -2.1875,-1.015625 z M 159.08594,16 157.36719,11.576172 h -5.66407 L 150.00391,16 h -1.81641 l 5.57617,-14.3359375 h 1.6211 L 160.95117,16 Z m -2.25586,-6.015625 -1.60156,-4.3261719 -0.6836,-2.1386719 c -0.19531,0.781254 -0.40039,1.4941374 -0.61523,2.1386719 l -1.6211,4.3261719 z m 10.13672,6.210937 c -1.54298,0 -2.74414,-0.473628 -3.60352,-1.420898 -0.85938,-0.94727 -1.28906,-2.306306 -1.28906,-4.077148 0,-1.7968844 0.43456,-3.1819617 1.30371,-4.1552738 0.86914,-0.9733122 2.10774,-1.459961 3.71582,-1.459961 0.52084,0 1.03678,0.05371 1.54785,0.1611329 0.51107,0.1074224 0.93262,0.2457673 1.26465,0.415039 l -0.53711,1.4648438 c -0.90495,-0.3385434 -1.67643,-0.5078125 -2.31445,-0.5078125 -1.08074,0 -1.87826,0.3401658 -2.39258,1.0205078 -0.51433,0.6803419 -0.77149,1.6943292 -0.77149,3.0419918 0,1.29558 0.25716,2.286781 0.77149,2.973633 0.51432,0.686853 1.27604,1.030274 2.28516,1.030274 0.94401,0 1.87174,-0.208332 2.7832,-0.625 v 1.5625 c -0.74219,0.384116 -1.66341,0.576171 -2.76367,0.576171 z m 9.59961,0 c -1.54298,0 -2.74414,-0.473628 -3.60352,-1.420898 -0.85938,-0.94727 -1.28906,-2.306306 -1.28906,-4.077148 0,-1.7968844 0.43456,-3.1819617 1.30371,-4.1552738 0.86914,-0.9733122 2.10774,-1.459961 3.71582,-1.459961 0.52083,0 1.03678,0.05371 1.54785,0.1611329 0.51107,0.1074224 0.93262,0.2457673 1.26465,0.415039 l -0.53711,1.4648438 c -0.90495,-0.3385434 -1.67643,-0.5078125 -2.31445,-0.5078125 -1.08074,0 -1.87826,0.3401658 -2.39258,1.0205078 -0.51433,0.6803419 -0.77149,1.6943292 -0.77149,3.0419918 0,1.29558 0.25716,2.286781 0.77149,2.973633 0.51432,0.686853 1.27604,1.030274 2.28516,1.030274 0.94401,0 1.87174,-0.208332 2.7832,-0.625 v 1.5625 c -0.74219,0.384116 -1.66341,0.576171 -2.76367,0.576171 z m 9.86328,0 c -1.60808,0 -2.86946,-0.486648 -3.78418,-1.45996 -0.91472,-0.973313 -1.37207,-2.312817 -1.37207,-4.018555 0,-1.7187587 0.42643,-3.0875601 1.27929,-4.1064454 0.85287,-1.0188853 2.0052,-1.5283204 3.45704,-1.5283204 1.34766,0 2.42187,0.434566 3.22265,1.303711 0.80079,0.869145 1.20117,2.045891 1.20117,3.5302734 v 1.0644534 h -7.34375 c 0.0326,1.217454 0.3418,2.141924 0.92774,2.773437 0.58594,0.631514 1.41601,0.947266 2.49023,0.947266 0.57292,0 1.11654,-0.05045 1.63086,-0.151367 0.51433,-0.100912 1.11653,-0.29785 1.80664,-0.590821 v 1.542969 c -0.59245,0.253908 -1.14908,0.432942 -1.66992,0.537109 -0.52084,0.104168 -1.13606,0.15625 -1.8457,0.15625 z m -0.43946,-9.6777339 c -0.83984,0 -1.5039,0.2701796 -1.99218,0.8105469 -0.48829,0.5403673 -0.778,1.2923129 -0.86914,2.2558594 h 5.45898 c -0.013,-1.0026092 -0.24414,-1.7643203 -0.69336,-2.2851563 -0.44922,-0.5208359 -1.08398,-0.78125 -1.9043,-0.78125 z m 14.14063,6.5234379 c 0,1.002609 -0.37435,1.778968 -1.12305,2.329101 -0.7487,0.550133 -1.80012,0.825195 -3.15429,0.825195 -1.41277,0 -2.53581,-0.224607 -3.36915,-0.673828 v -1.601562 c 1.1784,0.572919 2.31445,0.859375 3.40821,0.859375 0.88542,0 1.52994,-0.143228 1.93359,-0.429688 0.40365,-0.286459 0.60547,-0.67057 0.60547,-1.152343 0,-0.42318 -0.19368,-0.781249 -0.58105,-1.074219 -0.38738,-0.29297 -1.07585,-0.628253 -2.06543,-1.005859 -1.00912,-0.390627 -1.71875,-0.724283 -2.12891,-1.000977 -0.41016,-0.2766941 -0.71126,-0.5875634 -0.90332,-0.9326172 -0.19206,-0.3450539 -0.28809,-0.7649715 -0.28809,-1.2597657 0,-0.8789106 0.35807,-1.5722631 1.07422,-2.0800781 0.71615,-0.507815 1.69921,-0.7617188 2.94922,-0.7617188 1.21745,0 2.35677,0.2408831 3.41797,0.7226563 l -0.5957,1.3964844 c -1.08725,-0.4557315 -2.06706,-0.6835938 -2.93946,-0.6835938 -0.72917,0 -1.28255,0.1155588 -1.66015,0.3466797 -0.37761,0.231121 -0.56641,0.5485006 -0.56641,0.9521485 0,0.3906269 0.16276,0.7145169 0.48828,0.9716796 0.32552,0.2571628 1.08398,0.6136045 2.27539,1.069336 0.89193,0.3320331 1.55111,0.6412751 1.97754,0.9277341 0.42644,0.28646 0.74056,0.608722 0.94238,0.966797 0.20183,0.358075 0.30274,0.787758 0.30274,1.289063 z m 9.58008,0 c 0,1.002609 -0.37435,1.778968 -1.12305,2.329101 -0.7487,0.550133 -1.80012,0.825195 -3.1543,0.825195 -1.41276,0 -2.5358,-0.224607 -3.36914,-0.673828 v -1.601562 c 1.17839,0.572919 2.31445,0.859375 3.40821,0.859375 0.88542,0 1.52994,-0.143228 1.93359,-0.429688 0.40365,-0.286459 0.60547,-0.67057 0.60547,-1.152343 0,-0.42318 -0.19368,-0.781249 -0.58106,-1.074219 -0.38737,-0.29297 -1.07584,-0.628253 -2.06543,-1.005859 -1.00912,-0.390627 -1.71874,-0.724283 -2.1289,-1.000977 -0.41016,-0.2766941 -0.71126,-0.5875634 -0.90332,-0.9326172 -0.19206,-0.3450539 -0.28809,-0.7649715 -0.28809,-1.2597657 0,-0.8789106 0.35807,-1.5722631 1.07422,-2.0800781 0.71615,-0.507815 1.69921,-0.7617188 2.94922,-0.7617188 1.21745,0 2.35676,0.2408831 3.41797,0.7226563 l -0.59571,1.3964844 c -1.08724,-0.4557315 -2.06705,-0.6835938 -2.93945,-0.6835938 -0.72917,0 -1.28255,0.1155588 -1.66015,0.3466797 -0.37761,0.231121 -0.56641,0.5485006 -0.56641,0.9521485 0,0.3906269 0.16276,0.7145169 0.48828,0.9716796 0.32552,0.2571628 1.08398,0.6136045 2.27539,1.069336 0.89193,0.3320331 1.55111,0.6412751 1.97754,0.9277341 0.42643,0.28646 0.74056,0.608722 0.94238,0.966797 0.20183,0.358075 0.30274,0.787758 0.30274,1.289063 z M 214.06641,16 h -1.75782 V 5.2773437 h 1.75782 z M 212.17187,2.3769531 c 0,-0.3906269 0.0993,-0.6738272 0.29786,-0.8496094 0.19856,-0.1757821 0.44433,-0.2636718 0.7373,-0.2636718 0.27344,0 0.5127,0.08789 0.71777,0.2636718 0.20508,0.1757822 0.30762,0.4589825 0.30762,0.8496094 0,0.3841165 -0.10254,0.6673168 -0.30762,0.8496094 C 213.71973,3.4088551 213.48047,3.5 213.20703,3.5 c -0.29297,0 -0.53874,-0.091145 -0.7373,-0.2734375 -0.19857,-0.1822926 -0.29786,-0.4654929 -0.29786,-0.8496094 z m 10.3711,2.7246094 c 1.41277,0 2.50325,0.4866488 3.27148,1.4599609 0.76824,0.9733122 1.15235,2.3323481 1.15235,4.0771486 0,1.770842 -0.39062,3.139644 -1.17188,4.106445 -0.78125,0.966802 -1.86523,1.450195 -3.25195,1.450195 -0.72266,0 -1.36719,-0.130206 -1.9336,-0.390624 -0.5664,-0.260419 -1.02864,-0.647784 -1.38671,-1.16211 h -0.13672 C 218.88411,15.423832 218.76367,15.876302 218.72461,16 h -1.25977 V 0.8046875 h 1.75782 v 3.6914062 c 0,0.7356808 -0.0326,1.4713505 -0.0977,2.2070313 h 0.0977 c 0.72266,-1.0677137 1.82942,-1.6015625 3.32031,-1.6015625 z M 222.25,6.5566406 c -1.08074,0 -1.85547,0.3059865 -2.32422,0.9179688 -0.46875,0.6119822 -0.70312,1.6471281 -0.70312,3.1054686 v 0.07813 c 0,1.464851 0.23925,2.51139 0.71777,3.139649 0.47852,0.628258 1.26139,0.942382 2.34863,0.942382 0.96355,0 1.68131,-0.353186 2.15332,-1.05957 0.47201,-0.706384 0.70801,-1.726881 0.70801,-3.061523 0,-1.3541738 -0.23763,-2.3697887 -0.71289,-3.0468754 -0.47526,-0.6770867 -1.20442,-1.015625 -2.1875,-1.015625 z M 231.52734,16 h -1.75781 V 5.2773437 h 1.75781 z M 229.63281,2.3769531 c 0,-0.3906269 0.0993,-0.6738272 0.29785,-0.8496094 0.19857,-0.1757821 0.44434,-0.2636718 0.73731,-0.2636718 0.27344,0 0.51269,0.08789 0.71777,0.2636718 0.20508,0.1757822 0.30762,0.4589825 0.30762,0.8496094 0,0.3841165 -0.10254,0.6673168 -0.30762,0.8496094 C 231.18066,3.4088551 230.94141,3.5 230.66797,3.5 230.375,3.5 230.12923,3.4088551 229.93066,3.2265625 229.73209,3.0442699 229.63281,2.7610696 229.63281,2.3769531 Z M 236.68359,16 h -1.75781 V 0.8046875 h 1.75781 z m 5.15625,0 h -1.75781 V 5.2773437 h 1.75781 z M 239.94531,2.3769531 c 0,-0.3906269 0.0993,-0.6738272 0.29785,-0.8496094 0.19857,-0.1757821 0.44434,-0.2636718 0.73731,-0.2636718 0.27344,0 0.51269,0.08789 0.71777,0.2636718 0.20508,0.1757822 0.30762,0.4589825 0.30762,0.8496094 0,0.3841165 -0.10254,0.6673168 -0.30762,0.8496094 C 241.49316,3.4088551 241.25391,3.5 240.98047,3.5 c -0.29297,0 -0.53874,-0.091145 -0.73731,-0.2734375 -0.19857,-0.1822926 -0.29785,-0.4654929 -0.29785,-0.8496094 z m 8.87696,12.3828129 c 0.22786,0 0.49479,-0.02279 0.80078,-0.06836 0.30599,-0.04557 0.5371,-0.09766 0.69336,-0.15625 v 1.347657 c -0.16277,0.07161 -0.41504,0.141601 -0.75684,0.20996 -0.3418,0.06836 -0.68847,0.102539 -1.04004,0.102539 -2.09636,0 -3.14453,-1.103504 -3.14453,-3.310546 V 6.6445312 h -1.51367 V 5.8046875 l 1.5332,-0.703125 0.70313,-2.2851562 h 1.04492 v 2.4609374 h 3.0957 v 1.3671875 h -3.0957 v 6.1914068 c 0,0.618492 0.14811,1.093748 0.44433,1.425781 0.29623,0.332033 0.70801,0.498047 1.23536,0.498047 z m 1.95312,-9.4824223 h 1.88477 l 2.31445,6.1035153 c 0.48828,1.328132 0.78776,2.30143 0.89844,2.919922 h 0.0781 c 0.0586,-0.240886 0.19206,-0.691728 0.40039,-1.352539 0.20834,-0.66081 0.38412,-1.189776 0.52735,-1.586914 l 2.17773,-6.0839843 h 1.89453 l -4.61914,12.2070313 c -0.44922,1.184902 -0.98307,2.034503 -1.60156,2.548828 -0.61849,0.514326 -1.38346,0.771484 -2.29492,0.771484 -0.48829,0 -0.97331,-0.05534 -1.45508,-0.166015 v -1.396485 c 0.32552,0.07813 0.71614,0.117188 1.17187,0.117188 0.5599,0 1.03516,-0.154621 1.42578,-0.463867 0.39063,-0.309247 0.70964,-0.78613 0.95704,-1.430664 l 0.55664,-1.425782 z"
           id="path54" />
        <path
           d="m 106.95703,46 h -5.15625 v -1.035156 l 1.67969,-0.38086 V 33.158203 l -1.67969,-0.400391 v -1.035156 h 5.15625 v 1.035156 l -1.67969,0.400391 v 11.425781 l 1.67969,0.38086 z m 9.82422,0 v -6.855469 c 0,-0.8724 -0.19368,-1.521807 -0.58106,-1.948242 -0.38737,-0.426434 -0.99446,-0.639648 -1.82128,-0.639648 -1.10027,0 -1.89941,0.304359 -2.39746,0.913086 -0.49805,0.608727 -0.74707,1.599928 -0.74707,2.973632 V 46 h -1.75782 V 35.277344 h 1.41602 l 0.26367,1.464843 h 0.0977 c 0.33203,-0.527346 0.79752,-0.93587 1.39648,-1.225585 0.59896,-0.289715 1.25976,-0.434571 1.98242,-0.434571 1.31511,0 2.29167,0.319008 2.92969,0.957031 0.63802,0.638024 0.95703,1.630853 0.95703,2.978516 V 46 Z m 6.81641,0 h -1.75782 V 35.277344 h 1.75782 z m -1.89453,-13.623047 c 0,-0.390627 0.0993,-0.673827 0.29785,-0.849609 0.19857,-0.175782 0.44433,-0.263672 0.7373,-0.263672 0.27344,0 0.5127,0.08789 0.71778,0.263672 0.20507,0.175782 0.30761,0.458982 0.30761,0.849609 0,0.384117 -0.10254,0.667317 -0.30761,0.849609 -0.20508,0.182293 -0.44434,0.273438 -0.71778,0.273438 -0.29297,0 -0.53873,-0.09114 -0.7373,-0.273438 -0.19857,-0.182292 -0.29785,-0.465492 -0.29785,-0.849609 z m 8.87695,12.382813 c 0.22786,0 0.49479,-0.02279 0.80078,-0.06836 0.30599,-0.04557 0.53711,-0.09766 0.69336,-0.15625 v 1.347656 c -0.16276,0.07162 -0.41504,0.141602 -0.75684,0.209961 -0.3418,0.06836 -0.68847,0.102539 -1.04004,0.102539 -2.09636,0 -3.14453,-1.103504 -3.14453,-3.310546 v -6.240235 h -1.51367 v -0.839844 l 1.5332,-0.703125 0.70313,-2.285156 h 1.04492 v 2.460938 h 3.0957 v 1.367187 h -3.0957 v 6.191406 c 0,0.618493 0.14811,1.093749 0.44434,1.425782 0.29622,0.332033 0.708,0.498047 1.23535,0.498047 z M 135.9707,46 h -1.75781 V 35.277344 h 1.75781 z m -1.89453,-13.623047 c 0,-0.390627 0.0993,-0.673827 0.29785,-0.849609 0.19857,-0.175782 0.44434,-0.263672 0.73731,-0.263672 0.27344,0 0.51269,0.08789 0.71777,0.263672 0.20508,0.175782 0.30762,0.458982 0.30762,0.849609 0,0.384117 -0.10254,0.667317 -0.30762,0.849609 -0.20508,0.182293 -0.44433,0.273438 -0.71777,0.273438 -0.29297,0 -0.53874,-0.09114 -0.73731,-0.273438 -0.19856,-0.182292 -0.29785,-0.465492 -0.29785,-0.849609 z M 145.99023,46 145.64844,44.476562 h -0.0781 c -0.53385,0.670577 -1.06608,1.124674 -1.59668,1.362305 -0.5306,0.237632 -1.19954,0.356445 -2.00683,0.356445 -1.0547,0 -1.88151,-0.276689 -2.48047,-0.830078 -0.59896,-0.553388 -0.89844,-1.33463 -0.89844,-2.34375 0,-2.17449 1.71548,-3.313801 5.14649,-3.417968 l 1.8164,-0.06836 v -0.634765 c 0,-0.813807 -0.17578,-1.414387 -0.52734,-1.801758 -0.35157,-0.387372 -0.91471,-0.581055 -1.68946,-0.581055 -0.5664,0 -1.10188,0.08463 -1.60644,0.253906 -0.50456,0.169272 -0.97819,0.358072 -1.4209,0.566407 l -0.53711,-1.31836 c 0.54037,-0.28646 1.12956,-0.511067 1.76758,-0.673828 0.63802,-0.162761 1.26953,-0.244141 1.89453,-0.244141 1.29558,0 2.25911,0.286456 2.89063,0.859375 0.63151,0.57292 0.94726,1.484369 0.94726,2.734375 V 46 Z m -3.62304,-1.220703 c 0.98308,0 1.75618,-0.265297 2.31933,-0.795899 0.56316,-0.530601 0.84473,-1.284174 0.84473,-2.260742 v -0.966797 l -1.58203,0.06836 c -1.23048,0.04557 -2.12728,0.240883 -2.69043,0.585937 -0.56315,0.345054 -0.84473,0.888668 -0.84473,1.63086 0,0.559898 0.1709,0.989581 0.5127,1.289062 0.3418,0.299481 0.82194,0.449219 1.44043,0.449219 z m 11.80664,-0.01953 c 0.22786,0 0.49479,-0.02279 0.80078,-0.06836 0.30599,-0.04557 0.53711,-0.09766 0.69336,-0.15625 v 1.347656 c -0.16276,0.07162 -0.41504,0.141602 -0.75684,0.209961 -0.3418,0.06836 -0.68847,0.102539 -1.04004,0.102539 -2.09636,0 -3.14453,-1.103504 -3.14453,-3.310546 v -6.240235 h -1.51367 v -0.839844 l 1.5332,-0.703125 0.70313,-2.285156 h 1.04492 v 2.460938 h 3.0957 v 1.367187 h -3.0957 v 6.191406 c 0,0.618493 0.14811,1.093749 0.44434,1.425782 0.29622,0.332033 0.708,0.498047 1.23535,0.498047 z M 159.56445,46 h -1.75781 V 35.277344 h 1.75781 z m -1.89453,-13.623047 c 0,-0.390627 0.0993,-0.673827 0.29785,-0.849609 0.19857,-0.175782 0.44434,-0.263672 0.73731,-0.263672 0.27344,0 0.51269,0.08789 0.71777,0.263672 0.20508,0.175782 0.30762,0.458982 0.30762,0.849609 0,0.384117 -0.10254,0.667317 -0.30762,0.849609 -0.20508,0.182293 -0.44433,0.273438 -0.71777,0.273438 -0.29297,0 -0.53874,-0.09114 -0.73731,-0.273438 -0.19856,-0.182292 -0.29785,-0.465492 -0.29785,-0.849609 z M 165.32617,46 161.26367,35.277344 h 1.88477 l 2.27539,6.318359 c 0.44922,1.269538 0.73568,2.216794 0.85937,2.841797 h 0.0781 c 0.0195,-0.08464 0.0439,-0.180664 0.0732,-0.288086 0.0293,-0.107422 0.0635,-0.224609 0.10254,-0.351562 0.0391,-0.126954 0.27994,-0.860996 0.72266,-2.202149 l 2.28515,-6.318359 h 1.875 L 167.34766,46 Z m 12.35352,0.195312 c -1.60808,0 -2.86946,-0.486648 -3.78418,-1.45996 -0.91472,-0.973313 -1.37207,-2.312817 -1.37207,-4.018555 0,-1.718759 0.42643,-3.08756 1.27929,-4.106445 0.85287,-1.018886 2.00521,-1.528321 3.45704,-1.528321 1.34766,0 2.42187,0.434566 3.22265,1.303711 0.80079,0.869145 1.20117,2.045891 1.20117,3.530274 v 1.064453 h -7.34375 c 0.0326,1.217454 0.3418,2.141924 0.92774,2.773437 0.58594,0.631514 1.41601,0.947266 2.49023,0.947266 0.57292,0 1.11654,-0.05045 1.63086,-0.151367 0.51433,-0.100912 1.11654,-0.29785 1.80664,-0.590821 v 1.542969 c -0.59245,0.253908 -1.14908,0.432942 -1.66992,0.53711 -0.52083,0.104167 -1.13606,0.15625 -1.8457,0.156249 z m -0.43946,-9.677734 c -0.83984,0 -1.5039,0.27018 -1.99218,0.810547 -0.48829,0.540367 -0.778,1.292313 -0.86914,2.255859 h 5.45898 c -0.013,-1.002609 -0.24414,-1.76432 -0.69336,-2.285156 -0.44922,-0.520836 -1.08398,-0.78125 -1.9043,-0.78125 z"
           id="path56" />
        <path
           d="m 237.54102,46 h -1.81641 l -2.7832,-9.355469 c -0.41016,-1.393236 -0.65104,-2.333982 -0.72266,-2.822265 -0.10417,0.748701 -0.33203,1.708978 -0.68359,2.880859 L 228.83984,46 h -1.8164 l -3.7793,-14.277344 h 1.875 l 2.2168,8.720703 c 0.29948,1.139329 0.52734,2.27213 0.68359,3.398438 0.14323,-1.067714 0.39714,-2.236322 0.76172,-3.50586 l 2.51953,-8.613281 h 1.85547 l 2.62695,8.681641 c 0.33855,1.126308 0.59896,2.272129 0.78125,3.4375 0.10417,-0.898442 0.33529,-2.037754 0.69336,-3.417969 l 2.20703,-8.701172 h 1.875 z m 14.57031,0 -1.71875,-4.423828 h -5.66406 L 243.0293,46 h -1.81641 l 5.57617,-14.335938 h 1.6211 L 253.97656,46 Z m -2.25586,-6.015625 -1.60156,-4.326172 -0.6836,-2.138672 c -0.19531,0.781254 -0.40039,1.494138 -0.61523,2.138672 l -1.6211,4.326172 z M 259.95312,46 h -5.15625 v -1.035156 l 1.67969,-0.38086 V 33.158203 l -1.67969,-0.400391 v -1.035156 h 5.15625 v 1.035156 l -1.67968,0.400391 v 11.425781 l 1.67968,0.38086 z"
           id="path58" />
      </g>
    </g>
  </g>
</svg>
